SplineFontDB: 3.0
FontName: 
FullName: 
FamilyName: f
Weight: 
Copyright: 1999-2003 / yuji oshimoo / 04@dsg4.com / www.04.jp.org
Version: 
ItalicAngle: 0
UnderlinePosition: -533
UnderlineWidth: 40
Ascent: 1536
Descent: 512
InvalidEm: 0
woffMajor: 1
woffMinor: 0
LayerCount: 2
Layer: 0 1 "Back" 1
Layer: 1 1 "Fore" 0
XUID: [1021 975 -1509718739 20163]
StyleMap: 0x0000
FSType: 4
OS2Version: 4
OS2_WeightWidthSlopeOnly: 0
OS2_UseTypoMetrics: 1
CreationTime: 1048627325
ModificationTime: 1442031368
PfmFamily: 81
TTFWeight: 400
TTFWidth: 5
LineGap: 0
VLineGap: 0
Panose: 0 0 4 0 0 0 0 0 0 0
OS2TypoAscent: 1536
OS2TypoAOffset: 0
OS2TypoDescent: -512
OS2TypoDOffset: 0
OS2TypoLinegap: 0
OS2WinAscent: 1536
OS2WinAOffset: 0
OS2WinDescent: 552
OS2WinDOffset: 0
HheadAscent: 1536
HheadAOffset: 0
HheadDescent: -552
HheadDOffset: 0
OS2SubXSize: 1434
OS2SubYSize: 1331
OS2SubXOff: 0
OS2SubYOff: 293
OS2SupXSize: 1434
OS2SupYSize: 1331
OS2SupXOff: 0
OS2SupYOff: 928
OS2StrikeYSize: 102
OS2StrikeYPos: 530
OS2CapHeight: 1280
OS2XHeight: 1024
OS2Vendor: 'Alts'
OS2CodePages: 00000001.00000000
OS2UnicodeRanges: 00000000.00000000.00000000.00000000
MarkAttachClasses: 1
DEI: 91125
TtTable: prep
PUSHW_1
 511
SCANCTRL
PUSHB_1
 1
SCANTYPE
SVTCA[y-axis]
MPPEM
PUSHB_1
 8
LT
IF
PUSHB_2
 1
 1
INSTCTRL
EIF
PUSHB_2
 70
 6
CALL
IF
POP
PUSHB_1
 16
EIF
MPPEM
PUSHB_1
 20
GT
IF
POP
PUSHB_1
 128
EIF
SCVTCI
PUSHB_1
 6
CALL
NOT
IF
SVTCA[y-axis]
PUSHB_1
 1
DUP
RCVT
PUSHB_1
 3
CALL
WCVTP
PUSHB_1
 3
DUP
RCVT
PUSHW_3
 1
 504
 2
CALL
PUSHB_1
 3
CALL
WCVTP
PUSHB_1
 2
DUP
RCVT
PUSHB_3
 3
 250
 2
CALL
PUSHB_1
 3
CALL
WCVTP
PUSHB_1
 4
DUP
RCVT
PUSHW_3
 1
 575
 2
CALL
PUSHB_1
 3
CALL
WCVTP
PUSHB_1
 5
DUP
RCVT
PUSHB_3
 4
 8
 2
CALL
PUSHB_1
 3
CALL
WCVTP
SVTCA[x-axis]
PUSHB_1
 6
DUP
RCVT
PUSHB_1
 3
CALL
WCVTP
PUSHB_1
 7
DUP
RCVT
PUSHW_3
 6
 32767
 2
CALL
PUSHB_2
 3
 70
SROUND
CALL
WCVTP
PUSHB_1
 8
DUP
RCVT
PUSHB_3
 7
 8
 2
CALL
PUSHB_2
 3
 70
SROUND
CALL
WCVTP
PUSHB_1
 9
DUP
RCVT
PUSHB_3
 8
 7
 2
CALL
PUSHB_2
 3
 70
SROUND

StartChar: parenleft
Encoding: 40 40 1
Width: 768
Flags: W
LayerCount: 2
Fore
SplineSet
0 256 m 1,0,-1
 256 256 l 1,1,-1
 256 1024 l 1,2,-1
 0 1024 l 1,3,-1
 0 256 l 1,0,-1
256 0 m 1,4,-1
 512 0 l 1,5,-1
 512 256 l 1,6,-1
 256 256 l 1,7,-1
 256 0 l 1,4,-1
256 1024 m 1,8,-1
 512 1024 l 1,9,-1
 512 1280 l 1,10,-1
 256 1280 l 1,11,-1
 256 1024 l 1,8,-1
EndSplineSet
Validated: 5
EndChar

StartChar: parenright
Encoding: 41 41 2
Width: 768
Flags: MW
LayerCount: 2
Fore
SplineSet
0 0 m 1,0,-1
 256 0 l 1,1,-1
 256 256 l 1,2,-1
 0 256 l 1,3,-1
 0 0 l 1,0,-1
0 1024 m 1,4,-1
 256 1024 l 1,5,-1
 256 1280 l 1,6,-1
 0 1280 l 1,7,-1
 0 1024 l 1,4,-1
256 256 m 1,8,-1
 512 256 l 1,9,-1
 512 1024 l 1,10,-1
 256 1024 l 1,11,-1
 256 256 l 1,8,-1
EndSplineSet
Validated: 5
EndChar

StartChar: plus
Encoding: 43 43 3
Width: 1024
Flags: W
LayerCount: 2
Fore
SplineSet
0 512 m 1,0,-1
 256 512 l 1,1,-1
 256 256 l 1,2,-1
 512 256 l 1,3,-1
 512 512 l 1,4,-1
 768 512 l 1,5,-1
 768 768 l 1,6,-1
 512 768 l 1,7,-1
 512 1024 l 1,8,-1
 256 1024 l 1,9,-1
 256 768 l 1,10,-1
 0 768 l 1,11,-1
 0 512 l 1,0,-1
EndSplineSet
Validated: 9
EndChar

StartChar: slash
Encoding: 47 47 4
Width: 1536
Flags: W
LayerCount: 2
Fore
SplineSet
0 0 m 1,0,-1
 256 0 l 1,1,-1
 256 256 l 1,2,-1
 0 256 l 1,3,-1
 0 0 l 1,0,-1
256 256 m 1,4,-1
 512 256 l 1,5,-1
 512 512 l 1,6,-1
 256 512 l 1,7,-1
 256 256 l 1,4,-1
512 512 m 1,8,-1
 768 512 l 1,9,-1
 768 768 l 1,10,-1
 512 768 l 1,11,-1
 512 512 l 1,8,-1
768 768 m 1,12,-1
 1024 768 l 1,13,-1
 1024 1024 l 1,14,-1
 768 1024 l 1,15,-1
 768 768 l 1,12,-1
1024 1024 m 1,16,-1
 1280 1024 l 1,17,-1
 1280 1280 l 1,18,-1
 1024 1280 l 1,19,-1
 1024 1024 l 1,16,-1
EndSplineSet
Validated: 5
EndChar

StartChar: zero
Encoding: 48 48 5
Width: 1280
Flags: W
LayerCount: 2
Fore
SplineSet
0 256 m 1,0,-1
 0 1024 l 1,1,-1
 256 1024 l 1,2,-1
 256 1280 l 1,3,-1
 768 1280 l 1,4,-1
 768 1024 l 1,5,-1
 1024 1024 l 1,6,-1
 1024 256 l 1,7,-1
 768 256 l 1,8,-1
 768 0 l 1,9,-1
 256 0 l 1,10,-1
 256 256 l 1,11,-1
 0 256 l 1,0,-1
256 258 m 1,12,-1
 768 258 l 1,13,-1
 768 1022 l 1,14,-1
 256 1022 l 1,15,-1
 256 258 l 1,12,-1
EndSplineSet
Validated: 1
EndChar

StartChar: one
Encoding: 49 49 6
Width: 768
Flags: W
LayerCount: 2
Fore
SplineSet
0 1024 m 1,0,-1
 256 1024 l 1,1,-1
 256 0 l 1,2,-1
 512 0 l 1,3,-1
 512 1280 l 1,4,-1
 0 1280 l 1,5,-1
 0 1024 l 1,0,-1
EndSplineSet
Validated: 9
EndChar

StartChar: two
Encoding: 50 50 7
Width: 1280
Flags: W
LayerCount: 2
Fore
SplineSet
0 0 m 1,0,-1
 1024 0 l 1,1,-1
 1024 256 l 1,2,-1
 256 256 l 1,3,-1
 256 512 l 1,4,-1
 0 512 l 1,5,-1
 0 0 l 1,0,-1
0 1024 m 1,6,-1
 768 1024 l 1,7,-1
 768 1280 l 1,8,-1
 0 1280 l 1,9,-1
 0 1024 l 1,6,-1
256 512 m 1,10,-1
 768 512 l 1,11,-1
 768 768 l 1,12,-1
 256 768 l 1,13,-1
 256 512 l 1,10,-1
768 768 m 1,14,-1
 1024 768 l 1,15,-1
 1024 1024 l 1,16,-1
 768 1024 l 1,17,-1
 768 768 l 1,14,-1
EndSplineSet
Validated: 5
EndChar

StartChar: three
Encoding: 51 51 8
Width: 1280
Flags: W
LayerCount: 2
Fore
SplineSet
0 0 m 1,0,-1
 768 0 l 1,1,-1
 768 256 l 1,2,-1
 0 256 l 1,3,-1
 0 0 l 1,0,-1
0 1024 m 1,4,-1
 768 1024 l 1,5,-1
 768 1280 l 1,6,-1
 0 1280 l 1,7,-1
 0 1024 l 1,4,-1
256 512 m 1,8,-1
 768 512 l 1,9,-1
 768 768 l 1,10,-1
 256 768 l 1,11,-1
 256 512 l 1,8,-1
768 256 m 1,12,-1
 1024 256 l 1,13,-1
 1024 512 l 1,14,-1
 768 512 l 1,15,-1
 768 256 l 1,12,-1
768 768 m 1,16,-1
 1024 768 l 1,17,-1
 1024 1024 l 1,18,-1
 768 1024 l 1,19,-1
 768 768 l 1,16,-1
EndSplineSet
Validated: 5
EndChar

StartChar: four
Encoding: 52 52 9
Width: 1280
Flags: W
LayerCount: 2
Fore
SplineSet
0 256 m 1,0,-1
 0 768 l 1,1,-1
 256 768 l 1,2,-1
 256 1024 l 1,3,-1
 512 1024 l 1,4,-1
 512 1280 l 1,5,-1
 768 1280 l 1,6,-1
 768 512 l 1,7,-1
 1024 512 l 1,8,-1
 1024 256 l 1,9,-1
 768 256 l 1,10,-1
 768 0 l 1,11,-1
 512 0 l 1,12,-1
 512 256 l 1,13,-1
 0 256 l 1,0,-1
256 512 m 1,14,-1
 512 512 l 1,15,-1
 512 766 l 1,16,-1
 256 766 l 1,17,-1
 256 512 l 1,14,-1
EndSplineSet
Validated: 1
EndChar

StartChar: five
Encoding: 53 53 10
Width: 1280
Flags: W
LayerCount: 2
Fore
SplineSet
0 0 m 1,0,-1
 768 0 l 1,1,-1
 768 256 l 1,2,-1
 0 256 l 1,3,-1
 0 0 l 1,0,-1
0 512 m 1,4,-1
 768 512 l 1,5,-1
 768 768 l 1,6,-1
 256 768 l 1,7,-1
 256 1024 l 1,8,-1
 1024 1024 l 1,9,-1
 1024 1280 l 1,10,-1
 0 1280 l 1,11,-1
 0 512 l 1,4,-1
768 256 m 1,12,-1
 1024 256 l 1,13,-1
 1024 512 l 1,14,-1
 768 512 l 1,15,-1
 768 256 l 1,12,-1
EndSplineSet
Validated: 5
EndChar

StartChar: six
Encoding: 54 54 11
Width: 1280
Flags: W
LayerCount: 2
Fore
SplineSet
0 256 m 1,0,-1
 0 1024 l 1,1,-1
 256 1024 l 1,2,-1
 256 1280 l 1,3,-1
 768 1280 l 1,4,-1
 768 1024 l 1,5,-1
 256 1024 l 1,6,-1
 256 768 l 1,7,-1
 768 768 l 1,8,-1
 768 512 l 1,9,-1
 1024 512 l 1,10,-1
 1024 256 l 1,11,-1
 768 256 l 1,12,-1
 768 0 l 1,13,-1
 256 0 l 1,14,-1
 256 256 l 1,15,-1
 0 256 l 1,0,-1
256 258 m 1,16,-1
 768 258 l 1,17,-1
 768 510 l 1,18,-1
 256 510 l 1,19,-1
 256 258 l 1,16,-1
EndSplineSet
Validated: 5
EndChar

StartChar: seven
Encoding: 55 55 12
Width: 1280
Flags: W
LayerCount: 2
Fore
SplineSet
0 1024 m 1,0,-1
 768 1024 l 1,1,-1
 768 768 l 1,2,-1
 1024 768 l 1,3,-1
 1024 1280 l 1,4,-1
 0 1280 l 1,5,-1
 0 1024 l 1,0,-1
256 0 m 1,6,-1
 512 0 l 1,7,-1
 512 512 l 1,8,-1
 256 512 l 1,9,-1
 256 0 l 1,6,-1
512 512 m 1,10,-1
 768 512 l 1,11,-1
 768 768 l 1,12,-1
 512 768 l 1,13,-1
 512 512 l 1,10,-1
EndSplineSet
Validated: 5
EndChar

StartChar: eight
Encoding: 56 56 13
Width: 1280
Flags: W
LayerCount: 2
Fore
SplineSet
0 256 m 1,0,-1
 0 512 l 1,1,-1
 256 512 l 1,2,-1
 256 768 l 1,3,-1
 0 768 l 1,4,-1
 0 1024 l 1,5,-1
 256 1024 l 1,6,-1
 256 1280 l 1,7,-1
 768 1280 l 1,8,-1
 768 1024 l 1,9,-1
 1024 1024 l 1,10,-1
 1024 768 l 1,11,-1
 768 768 l 1,12,-1
 768 512 l 1,13,-1
 1024 512 l 1,14,-1
 1024 256 l 1,15,-1
 768 256 l 1,16,-1
 768 0 l 1,17,-1
 256 0 l 1,18,-1
 256 256 l 1,19,-1
 0 256 l 1,0,-1
256 258 m 1,20,-1
 768 258 l 1,21,-1
 768 510 l 1,22,-1
 256 510 l 1,23,-1
 256 258 l 1,20,-1
256 770 m 1,24,-1
 768 770 l 1,25,-1
 768 1022 l 1,26,-1
 256 1022 l 1,27,-1
 256 770 l 1,24,-1
EndSplineSet
Validated: 1
EndChar

StartChar: nine
Encoding: 57 57 14
Width: 1280
Flags: W
LayerCount: 2
Fore
SplineSet
0 768 m 1,0,-1
 0 1024 l 1,1,-1
 256 1024 l 1,2,-1
 256 1280 l 1,3,-1
 768 1280 l 1,4,-1
 768 1024 l 1,5,-1
 1024 1024 l 1,6,-1
 1024 256 l 1,7,-1
 768 256 l 1,8,-1
 768 0 l 1,9,-1
 256 0 l 1,10,-1
 256 256 l 1,11,-1
 768 256 l 1,12,-1
 768 512 l 1,13,-1
 256 512 l 1,14,-1
 256 768 l 1,15,-1
 0 768 l 1,0,-1
256 770 m 1,16,-1
 768 770 l 1,17,-1
 768 1022 l 1,18,-1
 256 1022 l 1,19,-1
 256 770 l 1,16,-1
EndSplineSet
Validated: 5
EndChar

StartChar: A
Encoding: 65 65 15
Width: 1280
Flags: W
LayerCount: 2
Fore
SplineSet
0 0 m 1,0,-1
 0 1024 l 1,1,-1
 256 1024 l 1,2,-1
 256 1280 l 1,3,-1
 768 1280 l 1,4,-1
 768 1024 l 1,5,-1
 1024 1024 l 1,6,-1
 1024 0 l 1,7,-1
 768 0 l 1,8,-1
 768 256 l 1,9,-1
 256 256 l 1,10,-1
 256 0 l 1,11,-1
 0 0 l 1,0,-1
256 512 m 1,12,-1
 768 512 l 1,13,-1
 768 1022 l 1,14,-1
 256 1022 l 1,15,-1
 256 512 l 1,12,-1
EndSplineSet
Validated: 1
EndChar

StartChar: B
Encoding: 66 66 16
Width: 1280
Flags: W
LayerCount: 2
Fore
SplineSet
0 0 m 1,0,-1
 0 1280 l 1,1,-1
 768 1280 l 1,2,-1
 768 1024 l 1,3,-1
 1024 1024 l 1,4,-1
 1024 768 l 1,5,-1
 768 768 l 1,6,-1
 768 512 l 1,7,-1
 1024 512 l 1,8,-1
 1024 256 l 1,9,-1
 768 256 l 1,10,-1
 768 0 l 1,11,-1
 0 0 l 1,0,-1
256 258 m 1,12,-1
 768 258 l 1,13,-1
 768 510 l 1,14,-1
 256 510 l 1,15,-1
 256 258 l 1,12,-1
256 770 m 1,16,-1
 768 770 l 1,17,-1
 768 1022 l 1,18,-1
 256 1022 l 1,19,-1
 256 770 l 1,16,-1
EndSplineSet
Validated: 1
EndChar

StartChar: C
Encoding: 67 67 17
Width: 1024
Flags: W
LayerCount: 2
Fore
SplineSet
0 256 m 1,0,-1
 256 256 l 1,1,-1
 256 1024 l 1,2,-1
 0 1024 l 1,3,-1
 0 256 l 1,0,-1
256 0 m 1,4,-1
 768 0 l 1,5,-1
 768 256 l 1,6,-1
 256 256 l 1,7,-1
 256 0 l 1,4,-1
256 1024 m 1,8,-1
 768 1024 l 1,9,-1
 768 1280 l 1,10,-1
 256 1280 l 1,11,-1
 256 1024 l 1,8,-1
EndSplineSet
Validated: 5
EndChar

StartChar: D
Encoding: 68 68 18
Width: 1280
Flags: W
LayerCount: 2
Fore
SplineSet
0 0 m 1,0,-1
 0 1280 l 1,1,-1
 768 1280 l 1,2,-1
 768 1024 l 1,3,-1
 1024 1024 l 1,4,-1
 1024 256 l 1,5,-1
 768 256 l 1,6,-1
 768 0 l 1,7,-1
 0 0 l 1,0,-1
256 258 m 1,8,-1
 768 258 l 1,9,-1
 768 1022 l 1,10,-1
 256 1022 l 1,11,-1
 256 258 l 1,8,-1
EndSplineSet
Validated: 1
EndChar

StartChar: E
Encoding: 69 69 19
Width: 1024
Flags: W
LayerCount: 2
Fore
SplineSet
0 0 m 1,0,-1
 768 0 l 1,1,-1
 768 256 l 1,2,-1
 256 256 l 1,3,-1
 256 512 l 1,4,-1
 768 512 l 1,5,-1
 768 768 l 1,6,-1
 256 768 l 1,7,-1
 256 1024 l 1,8,-1
 768 1024 l 1,9,-1
 768 1280 l 1,10,-1
 0 1280 l 1,11,-1
 0 0 l 1,0,-1
EndSplineSet
Validated: 9
EndChar

StartChar: G
Encoding: 71 71 20
Width: 1280
Flags: W
LayerCount: 2
Fore
SplineSet
0 256 m 1,0,-1
 256 256 l 1,1,-1
 256 1024 l 1,2,-1
 0 1024 l 1,3,-1
 0 256 l 1,0,-1
256 0 m 1,4,-1
 256 256 l 1,5,-1
 768 256 l 1,6,-1
 768 512 l 1,7,-1
 512 512 l 1,8,-1
 512 768 l 1,9,-1
 1024 768 l 1,10,-1
 1024 0 l 1,11,-1
 256 0 l 1,4,-1
256 1024 m 1,12,-1
 1024 1024 l 1,13,-1
 1024 1280 l 1,14,-1
 256 1280 l 1,15,-1
 256 1024 l 1,12,-1
EndSplineSet
Validated: 5
EndChar

StartChar: H
Encoding: 72 72 21
Width: 1280
Flags: W
LayerCount: 2
Fore
SplineSet
0 0 m 1,0,-1
 256 0 l 1,1,-1
 256 512 l 1,2,-1
 768 512 l 1,3,-1
 768 0 l 1,4,-1
 1024 0 l 1,5,-1
 1024 1280 l 1,6,-1
 768 1280 l 1,7,-1
 768 768 l 1,8,-1
 256 768 l 1,9,-1
 256 1280 l 1,10,-1
 0 1280 l 1,11,-1
 0 0 l 1,0,-1
EndSplineSet
Validated: 9
EndChar

StartChar: I
Encoding: 73 73 22
Width: 1024
Flags: W
LayerCount: 2
Fore
SplineSet
0 0 m 1,0,-1
 768 0 l 1,1,-1
 768 256 l 1,2,-1
 512 256 l 1,3,-1
 512 1024 l 1,4,-1
 768 1024 l 1,5,-1
 768 1280 l 1,6,-1
 0 1280 l 1,7,-1
 0 1024 l 1,8,-1
 256 1024 l 1,9,-1
 256 256 l 1,10,-1
 0 256 l 1,11,-1
 0 0 l 1,0,-1
EndSplineSet
Validated: 9
EndChar

StartChar: K
Encoding: 75 75 23
Width: 1280
Flags: W
LayerCount: 2
Fore
SplineSet
0 0 m 1,0,-1
 256 0 l 1,1,-1
 256 512 l 1,2,-1
 512 512 l 1,3,-1
 512 768 l 1,4,-1
 256 768 l 1,5,-1
 256 1280 l 1,6,-1
 0 1280 l 1,7,-1
 0 0 l 1,0,-1
512 256 m 1,8,-1
 768 256 l 1,9,-1
 768 512 l 1,10,-1
 512 512 l 1,11,-1
 512 256 l 1,8,-1
512 768 m 1,12,-1
 768 768 l 1,13,-1
 768 1024 l 1,14,-1
 512 1024 l 1,15,-1
 512 768 l 1,12,-1
768 0 m 1,16,-1
 1024 0 l 1,17,-1
 1024 256 l 1,18,-1
 768 256 l 1,19,-1
 768 0 l 1,16,-1
768 1024 m 1,20,-1
 1024 1024 l 1,21,-1
 1024 1280 l 1,22,-1
 768 1280 l 1,23,-1
 768 1024 l 1,20,-1
EndSplineSet
Validated: 5
EndChar

StartChar: L
Encoding: 76 76 24
Width: 1024
Flags: W
LayerCount: 2
Fore
SplineSet
0 0 m 1,0,-1
 768 0 l 1,1,-1
 768 256 l 1,2,-1
 256 256 l 1,3,-1
 256 1280 l 1,4,-1
 0 1280 l 1,5,-1
 0 0 l 1,0,-1
EndSplineSet
Validated: 9
EndChar

StartChar: M
Encoding: 77 77 25
Width: 1536
Flags: W
LayerCount: 2
Fore
SplineSet
0 0 m 1,0,-1
 256 0 l 1,1,-1
 256 768 l 1,2,-1
 512 768 l 1,3,-1
 512 1024 l 1,4,-1
 256 1024 l 1,5,-1
 256 1280 l 1,6,-1
 0 1280 l 1,7,-1
 0 0 l 1,0,-1
512 512 m 1,8,-1
 768 512 l 1,9,-1
 768 768 l 1,10,-1
 512 768 l 1,11,-1
 512 512 l 1,8,-1
768 768 m 1,12,-1
 1024 768 l 1,13,-1
 1024 0 l 1,14,-1
 1280 0 l 1,15,-1
 1280 1280 l 1,16,-1
 1024 1280 l 1,17,-1
 1024 1024 l 1,18,-1
 768 1024 l 1,19,-1
 768 768 l 1,12,-1
EndSplineSet
Validated: 5
EndChar

StartChar: N
Encoding: 78 78 26
Width: 1280
Flags: W
LayerCount: 2
Fore
SplineSet
0 0 m 1,0,-1
 256 0 l 1,1,-1
 256 768 l 1,2,-1
 512 768 l 1,3,-1
 512 1024 l 1,4,-1
 256 1024 l 1,5,-1
 256 1280 l 1,6,-1
 0 1280 l 1,7,-1
 0 0 l 1,0,-1
512 512 m 1,8,-1
 768 512 l 1,9,-1
 768 0 l 1,10,-1
 1024 0 l 1,11,-1
 1024 1280 l 1,12,-1
 768 1280 l 1,13,-1
 768 768 l 1,14,-1
 512 768 l 1,15,-1
 512 512 l 1,8,-1
EndSplineSet
Validated: 5
EndChar

StartChar: O
Encoding: 79 79 27
Width: 1280
Flags: W
LayerCount: 2
Fore
SplineSet
0 256 m 1,0,-1
 0 1024 l 1,1,-1
 256 1024 l 1,2,-1
 256 1280 l 1,3,-1
 768 1280 l 1,4,-1
 768 1024 l 1,5,-1
 1024 1024 l 1,6,-1
 1024 256 l 1,7,-1
 768 256 l 1,8,-1
 768 0 l 1,9,-1
 256 0 l 1,10,-1
 256 256 l 1,11,-1
 0 256 l 1,0,-1
256 258 m 1,12,-1
 768 258 l 1,13,-1
 768 1022 l 1,14,-1
 256 1022 l 1,15,-1
 256 258 l 1,12,-1
EndSplineSet
Validated: 1
EndChar

StartChar: P
Encoding: 80 80 28
Width: 1280
Flags: W
LayerCount: 2
Fore
SplineSet
0 0 m 1,0,-1
 0 1280 l 1,1,-1
 768 1280 l 1,2,-1
 768 1024 l 1,3,-1
 1024 1024 l 1,4,-1
 1024 512 l 1,5,-1
 768 512 l 1,6,-1
 768 256 l 1,7,-1
 256 256 l 1,8,-1
 256 0 l 1,9,-1
 0 0 l 1,0,-1
256 514 m 1,10,-1
 768 514 l 1,11,-1
 768 1022 l 1,12,-1
 256 1022 l 1,13,-1
 256 514 l 1,10,-1
EndSplineSet
Validated: 1
EndChar

StartChar: Q
Encoding: 81 81 29
Width: 1280
Flags: W
LayerCount: 2
Fore
SplineSet
0 256 m 1,0,-1
 0 1024 l 1,1,-1
 256 1024 l 1,2,-1
 256 1280 l 1,3,-1
 768 1280 l 1,4,-1
 768 1024 l 1,5,-1
 1024 1024 l 1,6,-1
 1024 256 l 1,7,-1
 768 256 l 1,8,-1
 768 0 l 1,9,-1
 1024 0 l 1,10,-1
 1024 -256 l 1,11,-1
 768 -256 l 1,12,-1
 768 0 l 1,13,-1
 256 0 l 1,14,-1
 256 256 l 1,15,-1
 0 256 l 1,0,-1
256 258 m 1,16,-1
 768 258 l 1,17,-1
 768 1022 l 1,18,-1
 256 1022 l 1,19,-1
 256 258 l 1,16,-1
EndSplineSet
Validated: 5
EndChar

StartChar: R
Encoding: 82 82 30
Width: 1280
Flags: W
LayerCount: 2
Fore
SplineSet
0 0 m 1,0,-1
 0 1280 l 1,1,-1
 768 1280 l 1,2,-1
 768 1026 l 1,3,-1
 256 1026 l 1,4,-1
 256 514 l 1,5,-1
 768 514 l 1,6,-1
 768 1024 l 1,7,-1
 1024 1024 l 1,8,-1
 1024 512 l 1,9,-1
 768 512 l 1,10,-1
 768 256 l 1,11,-1
 1024 256 l 1,12,-1
 1024 0 l 1,13,-1
 768 0 l 1,14,-1
 768 256 l 1,15,-1
 256 256 l 1,16,-1
 256 0 l 1,17,-1
 0 0 l 1,0,-1
EndSplineSet
Validated: 5
EndChar

StartChar: S
Encoding: 83 83 31
Width: 1280
Flags: W
LayerCount: 2
Fore
SplineSet
0 0 m 1,0,-1
 768 0 l 1,1,-1
 768 256 l 1,2,-1
 0 256 l 1,3,-1
 0 0 l 1,0,-1
0 768 m 1,4,-1
 256 768 l 1,5,-1
 256 1024 l 1,6,-1
 0 1024 l 1,7,-1
 0 768 l 1,4,-1
256 512 m 1,8,-1
 768 512 l 1,9,-1
 768 768 l 1,10,-1
 256 768 l 1,11,-1
 256 512 l 1,8,-1
256 1024 m 1,12,-1
 1024 1024 l 1,13,-1
 1024 1280 l 1,14,-1
 256 1280 l 1,15,-1
 256 1024 l 1,12,-1
768 256 m 1,16,-1
 1024 256 l 1,17,-1
 1024 512 l 1,18,-1
 768 512 l 1,19,-1
 768 256 l 1,16,-1
EndSplineSet
Validated: 5
EndChar

StartChar: T
Encoding: 84 84 32
Width: 1024
Flags: W
LayerCount: 2
Fore
SplineSet
0 1024 m 1,0,-1
 256 1024 l 1,1,-1
 256 0 l 1,2,-1
 512 0 l 1,3,-1
 512 1024 l 1,4,-1
 768 1024 l 1,5,-1
 768 1280 l 1,6,-1
 0 1280 l 1,7,-1
 0 1024 l 1,0,-1
EndSplineSet
Validated: 9
EndChar

StartChar: U
Encoding: 85 85 33
Width: 1280
Flags: W
LayerCount: 2
Fore
SplineSet
0 256 m 1,0,-1
 256 256 l 1,1,-1
 256 1280 l 1,2,-1
 0 1280 l 1,3,-1
 0 256 l 1,0,-1
256 0 m 1,4,-1
 768 0 l 1,5,-1
 768 256 l 1,6,-1
 256 256 l 1,7,-1
 256 0 l 1,4,-1
768 256 m 1,8,-1
 1024 256 l 1,9,-1
 1024 1280 l 1,10,-1
 768 1280 l 1,11,-1
 768 256 l 1,8,-1
EndSplineSet
Validated: 5
EndChar

StartChar: V
Encoding: 86 86 34
Width: 1280
Flags: W
LayerCount: 2
Fore
SplineSet
0 256 m 1,0,-1
 256 256 l 1,1,-1
 256 1280 l 1,2,-1
 0 1280 l 1,3,-1
 0 256 l 1,0,-1
256 0 m 1,4,-1
 512 0 l 1,5,-1
 512 256 l 1,6,-1
 256 256 l 1,7,-1
 256 0 l 1,4,-1
512 256 m 1,8,-1
 768 256 l 1,9,-1
 768 768 l 1,10,-1
 512 768 l 1,11,-1
 512 256 l 1,8,-1
768 768 m 1,12,-1
 1024 768 l 1,13,-1
 1024 1280 l 1,14,-1
 768 1280 l 1,15,-1
 768 768 l 1,12,-1
EndSplineSet
Validated: 5
EndChar

StartChar: W
Encoding: 87 87 35
Width: 1536
Flags: W
LayerCount: 2
Fore
SplineSet
0 256 m 1,0,-1
 256 256 l 1,1,-1
 256 1280 l 1,2,-1
 0 1280 l 1,3,-1
 0 256 l 1,0,-1
256 0 m 1,4,-1
 512 0 l 1,5,-1
 512 256 l 1,6,-1
 256 256 l 1,7,-1
 256 0 l 1,4,-1
512 256 m 1,8,-1
 768 256 l 1,9,-1
 768 1024 l 1,10,-1
 512 1024 l 1,11,-1
 512 256 l 1,8,-1
768 0 m 1,12,-1
 1024 0 l 1,13,-1
 1024 256 l 1,14,-1
 768 256 l 1,15,-1
 768 0 l 1,12,-1
1024 256 m 1,16,-1
 1280 256 l 1,17,-1
 1280 1280 l 1,18,-1
 1024 1280 l 1,19,-1
 1024 256 l 1,16,-1
EndSplineSet
Validated: 5
EndChar

StartChar: X
Encoding: 88 88 36
Width: 1280
Flags: W
LayerCount: 2
Fore
SplineSet
0 0 m 1,0,-1
 256 0 l 1,1,-1
 256 512 l 1,2,-1
 0 512 l 1,3,-1
 0 0 l 1,0,-1
0 768 m 1,4,-1
 256 768 l 1,5,-1
 256 1280 l 1,6,-1
 0 1280 l 1,7,-1
 0 768 l 1,4,-1
256 512 m 1,8,-1
 768 512 l 1,9,-1
 768 768 l 1,10,-1
 256 768 l 1,11,-1
 256 512 l 1,8,-1
768 0 m 1,12,-1
 1024 0 l 1,13,-1
 1024 512 l 1,14,-1
 768 512 l 1,15,-1
 768 0 l 1,12,-1
768 768 m 1,16,-1
 1024 768 l 1,17,-1
 1024 1280 l 1,18,-1
 768 1280 l 1,19,-1
 768 768 l 1,16,-1
EndSplineSet
Validated: 5
EndChar

StartChar: Y
Encoding: 89 89 37
Width: 1280
Flags: W
LayerCount: 2
Fore
SplineSet
0 768 m 1,0,-1
 256 768 l 1,1,-1
 256 1280 l 1,2,-1
 0 1280 l 1,3,-1
 0 768 l 1,0,-1
256 0 m 1,4,-1
 768 0 l 1,5,-1
 768 256 l 1,6,-1
 256 256 l 1,7,-1
 256 0 l 1,4,-1
256 512 m 1,8,-1
 768 512 l 1,9,-1
 768 256 l 1,10,-1
 1024 256 l 1,11,-1
 1024 1280 l 1,12,-1
 768 1280 l 1,13,-1
 768 768 l 1,14,-1
 256 768 l 1,15,-1
 256 512 l 1,8,-1
EndSplineSet
Validated: 5
EndChar

StartChar: Z
Encoding: 90 90 38
Width: 1024
Flags: W
LayerCount: 2
Fore
SplineSet
0 0 m 1,0,-1
 768 0 l 1,1,-1
 768 256 l 1,2,-1
 256 256 l 1,3,-1
 256 512 l 1,4,-1
 0 512 l 1,5,-1
 0 0 l 1,0,-1
0 1024 m 1,6,-1
 512 1024 l 1,7,-1
 512 768 l 1,8,-1
 768 768 l 1,9,-1
 768 1280 l 1,10,-1
 0 1280 l 1,11,-1
 0 1024 l 1,6,-1
256 512 m 1,12,-1
 512 512 l 1,13,-1
 512 768 l 1,14,-1
 256 768 l 1,15,-1
 256 512 l 1,12,-1
EndSplineSet
Validated: 5
EndChar

